<svg width="20" height="22" viewBox="0 0 20 22" fill="none" xmlns="http://www.w3.org/2000/svg">
<path d="M15.9329 6.33778C15.9059 8.10601 15.3176 10.5001 12.56 11.4284C13.4235 9.37425 13.5553 7.40836 12.9435 5.57072C12.1259 3.10366 9.39765 1.1766 7.58235 0.127187C6.96235 -0.232813 6.16706 0.214246 6.17882 0.930716C6.20235 2.23895 5.80471 4.15072 3.87412 6.08131C1.30235 8.65072 0 11.306 0 13.9719C0 17.319 2.35294 21.599 7.05882 21.599C2.30471 16.8448 5.88235 12.7954 5.88235 12.7954C6.87765 19.7531 11.7506 21.599 14.1176 21.599C16.1306 21.599 20 20.1284 20 14.0131C20 10.3272 18.4329 7.52954 17.1941 5.8966C16.7859 5.35778 15.9424 5.66366 15.9329 6.33778Z" fill="#FF5722"/>
</svg>
