<svg width="192" height="50" viewBox="0 0 192 50" fill="none" xmlns="http://www.w3.org/2000/svg">
<path d="M8.42773 33.2832C7.34701 33.2832 6.34766 33.1237 5.42969 32.8047C4.51823 32.4857 3.73372 32.0104 3.07617 31.3789C2.41862 30.7474 1.90755 29.9596 1.54297 29.0156C1.1849 28.0716 1.00586 26.9811 1.00586 25.7441C1.00586 24.5918 1.17839 23.5469 1.52344 22.6094C1.86849 21.6719 2.36979 20.8678 3.02734 20.1973C3.65885 19.5527 4.4401 19.0547 5.37109 18.7031C6.30859 18.3516 7.33073 18.1758 8.4375 18.1758C9.04948 18.1758 9.59961 18.2116 10.0879 18.2832C10.5827 18.3483 11.0384 18.4362 11.4551 18.5469C11.8913 18.6706 12.2852 18.8105 12.6367 18.9668C12.9948 19.1165 13.3073 19.2565 13.5742 19.3867V22.9121H13.1445C12.9622 22.7559 12.7311 22.5703 12.4512 22.3555C12.1777 22.1406 11.8652 21.929 11.5137 21.7207C11.1556 21.5124 10.7682 21.3366 10.3516 21.1934C9.9349 21.0501 9.48893 20.9785 9.01367 20.9785C8.48633 20.9785 7.98503 21.0632 7.50977 21.2324C7.03451 21.3952 6.59505 21.6686 6.19141 22.0527C5.80729 22.4238 5.49479 22.9154 5.25391 23.5273C5.01953 24.1393 4.90234 24.8815 4.90234 25.7539C4.90234 26.6654 5.0293 27.4271 5.2832 28.0391C5.54362 28.651 5.86914 29.1328 6.25977 29.4844C6.6569 29.8424 7.09961 30.0996 7.58789 30.2559C8.07617 30.4056 8.55794 30.4805 9.0332 30.4805C9.48893 30.4805 9.93815 30.4121 10.3809 30.2754C10.8301 30.1387 11.2435 29.9531 11.6211 29.7188C11.9401 29.5299 12.2363 29.3281 12.5098 29.1133C12.7832 28.8984 13.0078 28.7129 13.1836 28.5566H13.5742V32.0332C13.2096 32.196 12.8613 32.349 12.5293 32.4922C12.1973 32.6354 11.849 32.7591 11.4844 32.8633C11.0091 33 10.5632 33.1042 10.1465 33.1758C9.72982 33.2474 9.1569 33.2832 8.42773 33.2832ZM30.3652 33H26.6152V26.5938H21.0781V33H17.3281V18.459H21.0781V23.7812H26.6152V18.459H30.3652V33ZM48.5234 33H44.6465L43.6406 30.0605H38.25L37.2441 33H33.4648L38.8359 18.459H43.1523L48.5234 33ZM42.7324 27.3945L40.9453 22.1797L39.1582 27.3945H42.7324ZM62.1016 33H51.6133V18.459H55.3633V30.1875H62.1016V33ZM75.8555 33H65.3672V18.459H69.1172V30.1875H75.8555V33ZM89.6387 33H79.1211V18.459H89.6387V21.2715H82.8516V23.7812H89.1504V26.5938H82.8516V30.1875H89.6387V33ZM107.016 33H103.402L97.2305 23.0195V33H93.793V18.459H98.2754L103.578 26.7891V18.459H107.016V33ZM124.588 32.1699C123.937 32.4238 123.074 32.6777 122 32.9316C120.926 33.179 119.855 33.3027 118.787 33.3027C116.313 33.3027 114.376 32.6322 112.977 31.291C111.577 29.9434 110.877 28.0846 110.877 25.7148C110.877 23.4557 111.583 21.6361 112.996 20.2559C114.409 18.8691 116.378 18.1758 118.904 18.1758C119.861 18.1758 120.773 18.2637 121.639 18.4395C122.505 18.6087 123.468 18.9505 124.529 19.4648V22.873H124.109C123.927 22.7363 123.66 22.5443 123.309 22.2969C122.957 22.043 122.618 21.8281 122.293 21.6523C121.915 21.444 121.473 21.265 120.965 21.1152C120.464 20.9655 119.93 20.8906 119.363 20.8906C118.699 20.8906 118.097 20.9883 117.557 21.1836C117.016 21.3789 116.531 21.6784 116.102 22.082C115.691 22.4727 115.366 22.9707 115.125 23.5762C114.891 24.1751 114.773 24.8685 114.773 25.6562C114.773 27.2643 115.2 28.4948 116.053 29.3477C116.906 30.2005 118.165 30.627 119.832 30.627C119.975 30.627 120.132 30.6237 120.301 30.6172C120.477 30.6107 120.636 30.6009 120.779 30.5879V27.7363H117.879V24.9922H124.588V32.1699ZM139.475 33H128.957V18.459H139.475V21.2715H132.688V23.7812H138.986V26.5938H132.688V30.1875H139.475V33Z" fill="white"/>
<g clip-path="url(#clip0)">
<path d="M170.5 0L192 12.4129V37.2387L170.5 49.6516L149 37.2387V12.4129L170.5 0Z" fill="#673AB8"/>
<path d="M154.856 37.0334C157.714 40.6918 166.798 37.9043 175.374 31.2042C183.949 24.5043 188.851 16.365 185.993 12.7065C183.135 9.04815 174.052 11.8358 165.476 18.5357C156.9 25.236 151.998 33.3751 154.856 37.0334ZM156.077 36.0794C155.129 34.8663 155.544 32.4845 157.349 29.4861C159.251 26.3288 162.479 22.8432 166.43 19.7568C170.38 16.6704 174.543 14.3812 178.067 13.2998C181.413 12.273 183.824 12.4473 184.772 13.6606C185.72 14.8738 185.306 17.2556 183.5 20.254C181.598 23.4113 178.37 26.8967 174.42 29.9833C170.469 33.0697 166.306 35.3589 162.783 36.4401C159.436 37.4671 157.025 37.2928 156.077 36.0795V36.0794Z" fill="white"/>
<path d="M185.993 37.0334C188.852 33.3751 183.949 25.2358 175.374 18.5357C166.798 11.8358 157.714 9.04815 154.856 12.7065C151.998 16.3649 156.9 24.5043 165.476 31.2042C174.052 37.9043 183.135 40.6919 185.993 37.0334ZM184.772 36.0794C183.824 37.2928 181.413 37.4671 178.067 36.4402C174.543 35.3589 170.38 33.0697 166.43 29.9833C162.479 26.8967 159.251 23.4113 157.35 20.254C155.544 17.2556 155.129 14.874 156.077 13.6606C157.025 12.4473 159.436 12.273 162.782 13.2998C166.306 14.3812 170.469 16.6704 174.42 19.7568C178.37 22.8432 181.598 26.3288 183.5 29.4861C185.306 32.4843 185.72 34.8661 184.772 36.0795V36.0794Z" fill="white"/>
<path d="M170.425 28.1628C172.243 28.1628 173.717 26.6886 173.717 24.87C173.717 23.0515 172.243 21.5773 170.425 21.5773C168.606 21.5773 167.132 23.0515 167.132 24.87C167.132 26.6886 168.606 28.1628 170.425 28.1628Z" fill="white"/>
</g>
<defs>
<clipPath id="clip0">
<rect width="43" height="49.7188" fill="white" transform="translate(149)"/>
</clipPath>
</defs>
</svg>
