<svg width="15" height="17" viewBox="0 0 15 17" fill="none" xmlns="http://www.w3.org/2000/svg">
<path fill-rule="evenodd" clip-rule="evenodd" d="M7.83335 9.20833V14.1667C7.83335 14.3545 7.76987 14.5347 7.65686 14.6675C7.54386 14.8004 7.39059 14.875 7.23078 14.875C7.07097 14.875 6.91771 14.8004 6.8047 14.6675C6.6917 14.5347 6.62822 14.3545 6.62822 14.1667V9.20833H2.41025C2.25043 9.20833 2.09717 9.13371 1.98417 9.00087C1.87116 8.86803 1.80768 8.68786 1.80768 8.5C1.80768 8.31214 1.87116 8.13197 1.98417 7.99913C2.09717 7.86629 2.25043 7.79167 2.41025 7.79167H6.62822V2.83333C6.62822 2.64547 6.6917 2.4653 6.8047 2.33247C6.91771 2.19963 7.07097 2.125 7.23078 2.125C7.39059 2.125 7.54386 2.19963 7.65686 2.33247C7.76987 2.4653 7.83335 2.64547 7.83335 2.83333V7.79167H12.0513C12.2111 7.79167 12.3644 7.86629 12.4774 7.99913C12.5904 8.13197 12.6539 8.31214 12.6539 8.5C12.6539 8.68786 12.5904 8.86803 12.4774 9.00087C12.3644 9.13371 12.2111 9.20833 12.0513 9.20833H7.83335Z" fill="white"/>
</svg>
