<svg width="20" height="20" viewBox="0 0 20 20" fill="none" xmlns="http://www.w3.org/2000/svg">
<path fill-rule="evenodd" clip-rule="evenodd" d="M20 10C20 12.6522 18.9464 15.1957 17.0711 17.0711C15.1957 18.9464 12.6522 20 10 20C7.34784 20 4.8043 18.9464 2.92893 17.0711C1.05357 15.1957 0 12.6522 0 10C0 7.34784 1.05357 4.8043 2.92893 2.92893C4.8043 1.05357 7.34784 0 10 0C12.6522 0 15.1957 1.05357 17.0711 2.92893C18.9464 4.8043 20 7.34784 20 10ZM8.125 6.25H13.125C13.2908 6.25 13.4497 6.31585 13.5669 6.43306C13.6842 6.55027 13.75 6.70924 13.75 6.875V11.875C13.75 12.0408 13.6842 12.1997 13.5669 12.3169C13.4497 12.4342 13.2908 12.5 13.125 12.5C12.9592 12.5 12.8003 12.4342 12.6831 12.3169C12.5658 12.1997 12.5 12.0408 12.5 11.875V8.38375L7.3175 13.5675C7.20014 13.6849 7.04097 13.7508 6.875 13.7508C6.70903 13.7508 6.54986 13.6849 6.4325 13.5675C6.31514 13.4501 6.24921 13.291 6.24921 13.125C6.24921 12.959 6.31514 12.7999 6.4325 12.6825L11.6163 7.5H8.125C7.95924 7.5 7.80027 7.43415 7.68306 7.31694C7.56585 7.19973 7.5 7.04076 7.5 6.875C7.5 6.70924 7.56585 6.55027 7.68306 6.43306C7.80027 6.31585 7.95924 6.25 8.125 6.25Z" fill="#FF5722"/>
</svg>
